<?xml version="1.0" encoding="UTF-8"?>
<svg xmlns="http://www.w3.org/2000/svg" xmlns:xlink="http://www.w3.org/1999/xlink" width="3003" height="3003" viewBox="0 0 3003 3003">
<path fill-rule="nonzero" fill="rgb(99.609375%, 99.609375%, 99.609375%)" fill-opacity="1" d="M 1.042969 0 C 0.765625 0 0.5 0.109375 0.304688 0.308594 C 0.109375 0.5 0 0.769531 0 1.039062 L 0 3001.042969 C 0 3001.617188 0.46875 3002.085938 1.042969 3002.085938 L 3001.039062 3002.085938 C 3001.320312 3002.085938 3001.589844 3001.976562 3001.78125 3001.78125 C 3001.980469 3001.585938 3002.089844 3001.320312 3002.089844 3001.042969 L 3002.089844 1.039062 C 3002.089844 0.46875 3001.621094 0 3001.039062 0 Z M 1.042969 0 "/>
<path fill-rule="nonzero" fill="rgb(1.567078%, 2.352905%, 2.352905%)" fill-opacity="1" d="M 2039.261719 1058.5 C 2039.261719 1077.179688 2024.070312 1092.390625 2005.378906 1092.390625 L 986.941406 1092.390625 C 968.257812 1092.390625 953.0625 1077.179688 953.0625 1058.5 L 953.0625 996.660156 C 953.0625 977.980469 968.257812 962.78125 986.941406 962.78125 L 2005.378906 962.789062 C 2024.070312 962.78125 2039.261719 977.980469 2039.261719 996.660156 Z M 1907.179688 1986.191406 C 1907.019531 1987.46875 1905.929688 1988.441406 1904.628906 1988.441406 L 1087.699219 1988.441406 C 1086.390625 1988.441406 1085.300781 1987.46875 1085.140625 1986.191406 L 1012.890625 1333.480469 C 1012.808594 1332.71875 1013.03125 1332.058594 1013.53125 1331.488281 C 1014.03125 1330.929688 1014.679688 1330.640625 1015.429688 1330.640625 L 1976.890625 1330.640625 C 1977.640625 1330.640625 1978.289062 1330.929688 1978.789062 1331.488281 C 1979.300781 1332.058594 1979.519531 1332.71875 1979.441406 1333.480469 Z M 1837.671875 2251.71875 L 1154.648438 2251.722656 C 1149.441406 2251.71875 1145.449219 2248.746094 1145.160156 2246.089844 L 1121.769531 2034.847656 L 1870.550781 2034.847656 L 1847.140625 2246.089844 C 1846.871094 2248.746094 1842.890625 2251.71875 1837.671875 2251.71875 Z M 1953.640625 1284.25 L 1038.679688 1284.25 L 1022.570312 1138.78125 L 1969.75 1138.78125 Z M 1064.839844 855.269531 C 1072.101562 840.761719 1086.679688 831.761719 1102.910156 831.761719 L 1889.410156 831.761719 C 1905.628906 831.761719 1920.21875 840.761719 1927.488281 855.269531 L 1958.089844 916.378906 L 1034.238281 916.378906 Z M 2010.121094 916.621094 L 1968.980469 834.5 C 1953.808594 804.179688 1923.308594 785.351562 1889.410156 785.351562 L 1102.910156 785.351562 C 1069 785.351562 1038.511719 804.179688 1023.328125 834.5 L 982.203125 916.621094 C 940.125 919.101562 906.640625 954 906.640625 996.660156 L 906.640625 1058.5 C 906.640625 1098.980469 936.785156 1132.449219 975.785156 1137.910156 L 992.617188 1289.96875 C 987.535156 1292.640625 982.875 1296.171875 978.964844 1300.53125 C 969.679688 1310.890625 965.234375 1324.769531 966.757812 1338.578125 L 1039.019531 1991.269531 C 1041.28125 2011.710938 1055.871094 2028 1074.898438 2033.128906 L 1099.03125 2251.199219 C 1102 2277.941406 1125.910156 2298.125 1154.648438 2298.125 L 1837.671875 2298.128906 C 1866.410156 2298.125 1890.308594 2277.941406 1893.289062 2251.199219 L 1917.421875 2033.128906 C 1936.460938 2028 1951.019531 2011.710938 1953.308594 1991.269531 L 2025.558594 1338.589844 C 2027.089844 1324.769531 2022.660156 1310.910156 2013.378906 1300.550781 C 2009.460938 1296.171875 2004.800781 1292.640625 1999.710938 1289.96875 L 2016.539062 1137.910156 C 2055.53125 1132.449219 2085.679688 1098.980469 2085.679688 1058.5 L 2085.679688 996.660156 C 2085.679688 954 2052.199219 919.101562 2010.121094 916.621094 "/>
<path fill-rule="nonzero" fill="rgb(1.567078%, 2.352905%, 2.352905%)" fill-opacity="1" d="M 1156.230469 1407.210938 C 1154.820312 1394.480469 1143.328125 1385.320312 1130.628906 1386.699219 C 1117.878906 1388.109375 1108.679688 1399.589844 1110.109375 1412.320312 L 1166.558594 1922.351562 C 1167.878906 1934.210938 1177.929688 1943.011719 1189.601562 1943.011719 C 1190.449219 1943.011719 1191.320312 1942.960938 1192.191406 1942.859375 C 1204.929688 1941.441406 1214.109375 1930 1212.699219 1917.25 L 1156.230469 1407.210938 "/>
<path fill-rule="nonzero" fill="rgb(1.567078%, 2.352905%, 2.352905%)" fill-opacity="1" d="M 1846.910156 1400.878906 C 1848.308594 1388.140625 1859.808594 1378.980469 1872.511719 1380.371094 C 1885.261719 1381.78125 1894.460938 1393.25 1893.039062 1405.988281 L 1836.578125 1916.019531 C 1835.261719 1927.878906 1825.210938 1936.679688 1813.539062 1936.679688 C 1812.691406 1936.679688 1811.820312 1936.621094 1810.949219 1936.519531 C 1798.210938 1935.109375 1789.03125 1923.660156 1790.441406 1910.921875 L 1846.910156 1400.878906 "/>
<path fill-rule="nonzero" fill="rgb(1.567078%, 2.352905%, 2.352905%)" fill-opacity="1" d="M 1484.078125 1402.101562 C 1484.070312 1389.28125 1494.480469 1378.898438 1507.25 1378.871094 C 1520.078125 1378.859375 1530.5 1389.238281 1530.488281 1402.058594 L 1530.988281 1915.191406 C 1530.988281 1927.128906 1521.980469 1936.988281 1510.378906 1938.28125 C 1509.539062 1938.378906 1508.671875 1938.421875 1507.789062 1938.421875 C 1494.96875 1938.429688 1484.578125 1928.070312 1484.558594 1915.25 L 1484.078125 1402.101562 "/>
<path fill-rule="nonzero" fill="rgb(1.567078%, 2.352905%, 2.352905%)" fill-opacity="1" d="M 1756.210938 1002.511719 C 1769.03125 1002.5 1779.410156 1012.898438 1779.441406 1025.679688 C 1779.449219 1038.511719 1769.070312 1048.921875 1756.25 1048.921875 L 1243.121094 1049.410156 C 1231.179688 1049.421875 1221.320312 1040.410156 1220.03125 1028.808594 C 1219.929688 1027.960938 1219.890625 1027.101562 1219.890625 1026.210938 C 1219.878906 1013.398438 1230.238281 1003 1243.058594 1002.988281 L 1756.210938 1002.511719 "/>
</svg>
