
<svg xmlns="http://www.w3.org/2000/svg" viewBox="0 0 450 450"  fill="currentColor">
<path d="M374.83,176.68l-7.41,49.45L329.9,226a93.56,93.56,0,0,0-147,.07l-38.23.61-7.5-50H113.45L152.94,440a11.74,11.74,0,0,0,11.61,10H347.47a11.73,11.73,0,0,0,11.6-10l39.5-263.36ZM337.35,426.57H174.66l-12.57-83.81,21-.46a93.54,93.54,0,0,0,146.77-.11l20.13.1ZM349.22,318.8l-25.2-.11h0a11.75,11.75,0,0,0-9.67,5.08,70.1,70.1,0,0,1-115.73,0,11.75,11.75,0,0,0-9.67-5.08h-.25l-24.93.55L153.35,250l35.74-.56a11.73,11.73,0,0,0,9.48-5.09,70.1,70.1,0,0,1,115.73,0,11.74,11.74,0,0,0,9.63,5.09l35,.12Z"/><path d="M417.46,119.32H398.57a9.8,9.8,0,0,1-9.37-6.95L373.92,62H138.09l-15.28,50.41a9.8,9.8,0,0,1-9.36,6.95H94.54v37.79H417.46ZM282.71,107H229.3a9.31,9.31,0,0,1,0-18.61h53.41a9.31,9.31,0,0,1,0,18.61Z"/>
</svg>
