<?xml version="1.0" encoding="UTF-8"?>
<svg xmlns="http://www.w3.org/2000/svg" xmlns:xlink="http://www.w3.org/1999/xlink" width="4000" height="4000" viewBox="0 0 4000 4000">
<path fill-rule="evenodd" fill="rgb(54.492188%, 27.050781%, 12.939453%)" fill-opacity="1" d="M 2966.320312 1865.179688 C 2895.101562 2439 2405.71875 2883.171875 1812.640625 2883.171875 C 1170.578125 2883.171875 650.011719 2362.609375 650.011719 1720.539062 C 650.011719 1078.480469 1170.578125 557.910156 1812.640625 557.910156 C 2405.71875 557.910156 2895.101562 1002.089844 2966.320312 1575.898438 L 3228.851562 1575.898438 C 3285.851562 1575.898438 3332.488281 1622.539062 3332.488281 1679.539062 L 3332.488281 1761.539062 C 3332.488281 1818.539062 3285.851562 1865.179688 3228.851562 1865.179688 L 2966.320312 1865.179688 "/>
<path fill-rule="evenodd" fill="rgb(100%, 82.03125%, 54.881287%)" fill-opacity="1" d="M 2859.558594 1720.539062 C 2859.558594 1142.351562 2390.839844 673.628906 1812.640625 673.628906 C 1234.441406 673.628906 765.722656 1142.351562 765.722656 1720.539062 C 765.722656 2298.738281 1234.441406 2767.460938 1812.640625 2767.460938 C 2390.839844 2767.460938 2859.558594 2298.738281 2859.558594 1720.539062 "/>
<path fill-rule="evenodd" fill="rgb(54.492188%, 27.050781%, 12.939453%)" fill-opacity="1" d="M 1257.179688 950.21875 C 1038.789062 1087.140625 888.078125 1377.890625 888.078125 1714.429688 C 888.078125 2182.671875 1179.808594 2562.25 1539.691406 2562.25 C 1539.691406 2562.25 1321.859375 2262.410156 1399.949219 1962.941406 C 1477.691406 1664.839844 1738.210938 1718.089844 1699.539062 1446.949219 C 1658.871094 1455.058594 1581.121094 1453.121094 1512 1351.351562 C 1512 1351.351562 1572.441406 1425.460938 1688.941406 1372.621094 L 1676.070312 1282.378906 L 1773.621094 1282.378906 C 1638.171875 1041.648438 1595.929688 737.851562 1257.179688 950.21875 Z M 1539.03125 1048.53125 C 1522.070312 1048.53125 1508.308594 1062.28125 1508.308594 1079.238281 C 1508.308594 1096.210938 1522.070312 1109.960938 1539.03125 1109.960938 C 1555.988281 1109.960938 1569.75 1096.210938 1569.75 1079.238281 C 1569.75 1062.28125 1555.988281 1048.53125 1539.03125 1048.53125 "/>
<path fill-rule="evenodd" fill="rgb(54.492188%, 27.050781%, 12.939453%)" fill-opacity="1" d="M 1957.601562 2494.789062 C 2081.199219 2411.898438 2181.800781 2279.070312 2243.628906 2116.808594 C 2286.808594 2003.480469 2311.089844 1875.78125 2311.089844 1740.710938 C 2311.089844 1272.480469 2019.359375 892.898438 1659.480469 892.898438 C 1821.359375 1101.570312 1847.308594 1274.988281 1823.28125 1409.808594 C 1813.96875 1462.011719 1786.601562 1580.441406 1702.238281 1680.019531 C 1480.808594 1941.429688 1459.371094 2044.511719 1430.359375 2153.578125 L 1527.910156 2153.578125 L 1515.039062 2243.820312 C 1631.539062 2296.660156 1691.980469 2222.550781 1691.980469 2222.550781 C 1622.859375 2324.328125 1545.109375 2326.261719 1504.441406 2318.148438 C 1464.238281 2600.019531 1773.429688 2573.421875 1957.601562 2494.789062 Z M 1661.050781 1993.179688 C 1678.011719 1993.179688 1691.761719 1979.429688 1691.761719 1962.46875 C 1691.761719 1945.5 1678.011719 1931.75 1661.050781 1931.75 C 1644.078125 1931.75 1630.328125 1945.5 1630.328125 1962.46875 C 1630.328125 1979.429688 1644.078125 1993.179688 1661.050781 1993.179688 "/>
<path fill-rule="evenodd" fill="rgb(54.492188%, 27.050781%, 12.939453%)" fill-opacity="1" d="M 2602.210938 1577.910156 C 2676.769531 1577.910156 2737.210938 1638.351562 2737.210938 1712.910156 C 2737.210938 1787.46875 2676.769531 1847.910156 2602.210938 1847.910156 C 2527.648438 1847.910156 2467.210938 1787.46875 2467.210938 1712.910156 C 2467.210938 1638.351562 2527.648438 1577.910156 2602.210938 1577.910156 "/>
<path fill-rule="evenodd" fill="rgb(54.492188%, 27.050781%, 12.939453%)" fill-opacity="1" d="M 2424.179688 1842.46875 C 2466.78125 1842.46875 2501.320312 1877 2501.320312 1919.609375 C 2501.320312 1962.210938 2466.78125 1996.75 2424.179688 1996.75 C 2381.578125 1996.75 2347.039062 1962.210938 2347.039062 1919.609375 C 2347.039062 1877 2381.578125 1842.46875 2424.179688 1842.46875 "/>
<path fill-rule="evenodd" fill="rgb(54.492188%, 27.050781%, 12.939453%)" fill-opacity="1" d="M 2648.570312 1909.988281 C 2685.851562 1909.988281 2716.070312 1940.210938 2716.070312 1977.488281 C 2716.070312 2014.761719 2685.851562 2044.980469 2648.570312 2044.980469 C 2611.289062 2044.980469 2581.070312 2014.761719 2581.070312 1977.488281 C 2581.070312 1940.210938 2611.289062 1909.988281 2648.570312 1909.988281 "/>
<path fill-rule="evenodd" fill="rgb(54.492188%, 27.050781%, 12.939453%)" fill-opacity="1" d="M 2400.679688 1725.300781 C 2416.660156 1725.300781 2429.609375 1738.25 2429.609375 1754.230469 C 2429.609375 1770.199219 2416.660156 1783.148438 2400.679688 1783.148438 C 2384.710938 1783.148438 2371.761719 1770.199219 2371.761719 1754.230469 C 2371.761719 1738.25 2384.710938 1725.300781 2400.679688 1725.300781 "/>
<path fill-rule="evenodd" fill="rgb(54.492188%, 27.050781%, 12.939453%)" fill-opacity="1" d="M 2555.921875 1870.101562 C 2566.578125 1870.101562 2575.210938 1878.738281 2575.210938 1889.390625 C 2575.210938 1900.039062 2566.578125 1908.679688 2555.921875 1908.679688 C 2545.269531 1908.679688 2536.640625 1900.039062 2536.640625 1889.390625 C 2536.640625 1878.738281 2545.269531 1870.101562 2555.921875 1870.101562 "/>
<path fill-rule="evenodd" fill="rgb(54.492188%, 27.050781%, 12.939453%)" fill-opacity="1" d="M 2417.941406 1600.800781 C 2433.921875 1600.800781 2446.871094 1613.761719 2446.871094 1629.730469 C 2446.871094 1645.710938 2433.921875 1658.660156 2417.941406 1658.660156 C 2401.96875 1658.660156 2389.011719 1645.710938 2389.011719 1629.730469 C 2389.011719 1613.761719 2401.96875 1600.800781 2417.941406 1600.800781 "/>
<path fill-rule="evenodd" fill="rgb(54.492188%, 27.050781%, 12.939453%)" fill-opacity="1" d="M 2502.800781 1460.511719 C 2529.429688 1460.511719 2551.011719 1482.101562 2551.011719 1508.71875 C 2551.011719 1535.351562 2529.429688 1556.941406 2502.800781 1556.941406 C 2476.171875 1556.941406 2454.589844 1535.351562 2454.589844 1508.71875 C 2454.589844 1482.101562 2476.171875 1460.511719 2502.800781 1460.511719 "/>
<path fill-rule="evenodd" fill="rgb(54.492188%, 27.050781%, 12.939453%)" fill-opacity="1" d="M 2371.761719 1334.269531 C 2414.359375 1334.269531 2448.898438 1368.808594 2448.898438 1411.410156 C 2448.898438 1454.019531 2414.359375 1488.550781 2371.761719 1488.550781 C 2329.148438 1488.550781 2294.609375 1454.019531 2294.609375 1411.410156 C 2294.609375 1368.808594 2329.148438 1334.269531 2371.761719 1334.269531 "/>
<path fill-rule="evenodd" fill="rgb(54.492188%, 27.050781%, 12.939453%)" fill-opacity="1" d="M 2541.371094 1233.980469 C 2568 1233.980469 2589.578125 1255.570312 2589.578125 1282.199219 C 2589.578125 1308.828125 2568 1330.410156 2541.371094 1330.410156 C 2514.738281 1330.410156 2493.160156 1308.828125 2493.160156 1282.199219 C 2493.160156 1255.570312 2514.738281 1233.980469 2541.371094 1233.980469 "/>
<path fill-rule="evenodd" fill="rgb(54.492188%, 27.050781%, 12.939453%)" fill-opacity="1" d="M 2645.511719 1394.050781 C 2661.488281 1394.050781 2674.441406 1407.011719 2674.441406 1422.980469 C 2674.441406 1438.960938 2661.488281 1451.910156 2645.511719 1451.910156 C 2629.53125 1451.910156 2616.578125 1438.960938 2616.578125 1422.980469 C 2616.578125 1407.011719 2629.53125 1394.050781 2645.511719 1394.050781 "/>
<path fill-rule="evenodd" fill="rgb(54.492188%, 27.050781%, 12.939453%)" fill-opacity="1" d="M 2510.511719 1378.628906 C 2526.488281 1378.628906 2539.441406 1391.578125 2539.441406 1407.550781 C 2539.441406 1423.53125 2526.488281 1436.480469 2510.511719 1436.480469 C 2494.539062 1436.480469 2481.589844 1423.53125 2481.589844 1407.550781 C 2481.589844 1391.578125 2494.539062 1378.628906 2510.511719 1378.628906 "/>
<path fill-rule="evenodd" fill="rgb(54.492188%, 27.050781%, 12.939453%)" fill-opacity="1" d="M 2323.539062 1162.628906 C 2350.171875 1162.628906 2371.761719 1184.210938 2371.761719 1210.839844 C 2371.761719 1237.46875 2350.171875 1259.058594 2323.539062 1259.058594 C 2296.921875 1259.058594 2275.328125 1237.46875 2275.328125 1210.839844 C 2275.328125 1184.210938 2296.921875 1162.628906 2323.539062 1162.628906 "/>
<path fill-rule="evenodd" fill="rgb(54.492188%, 27.050781%, 12.939453%)" fill-opacity="1" d="M 2460.46875 1164.558594 C 2476.449219 1164.558594 2489.398438 1177.511719 2489.398438 1193.488281 C 2489.398438 1209.460938 2476.449219 1222.410156 2460.46875 1222.410156 C 2444.488281 1222.410156 2431.539062 1209.460938 2431.539062 1193.488281 C 2431.539062 1177.511719 2444.488281 1164.558594 2460.46875 1164.558594 "/>
<path fill-rule="evenodd" fill="rgb(54.492188%, 27.050781%, 12.939453%)" fill-opacity="1" d="M 2385.261719 1056.558594 C 2401.230469 1056.558594 2414.179688 1069.511719 2414.179688 1085.488281 C 2414.179688 1101.460938 2401.230469 1114.410156 2385.261719 1114.410156 C 2369.28125 1114.410156 2356.328125 1101.460938 2356.328125 1085.488281 C 2356.328125 1069.511719 2369.28125 1056.558594 2385.261719 1056.558594 "/>
<path fill-rule="evenodd" fill="rgb(54.492188%, 27.050781%, 12.939453%)" fill-opacity="1" d="M 2217.46875 1104.769531 C 2233.449219 1104.769531 2246.398438 1117.71875 2246.398438 1133.699219 C 2246.398438 1149.679688 2233.449219 1162.628906 2217.46875 1162.628906 C 2201.5 1162.628906 2188.539062 1149.679688 2188.539062 1133.699219 C 2188.539062 1117.71875 2201.5 1104.769531 2217.46875 1104.769531 "/>
<path fill-rule="evenodd" fill="rgb(54.492188%, 27.050781%, 12.939453%)" fill-opacity="1" d="M 2254.121094 983.269531 C 2270.089844 983.269531 2283.039062 996.230469 2283.039062 1012.199219 C 2283.039062 1028.179688 2270.089844 1041.128906 2254.121094 1041.128906 C 2238.140625 1041.128906 2225.191406 1028.179688 2225.191406 1012.199219 C 2225.191406 996.230469 2238.140625 983.269531 2254.121094 983.269531 "/>
<path fill-rule="evenodd" fill="rgb(54.492188%, 27.050781%, 12.939453%)" fill-opacity="1" d="M 2124.21875 962.058594 C 2150.851562 962.058594 2172.429688 983.648438 2172.429688 1010.269531 C 2172.429688 1036.898438 2150.851562 1058.488281 2124.21875 1058.488281 C 2097.589844 1058.488281 2076.011719 1036.898438 2076.011719 1010.269531 C 2076.011719 983.648438 2097.589844 962.058594 2124.21875 962.058594 "/>
<path fill-rule="evenodd" fill="rgb(54.492188%, 27.050781%, 12.939453%)" fill-opacity="1" d="M 2027.179688 946.628906 C 2037.828125 946.628906 2046.46875 955.269531 2046.46875 965.921875 C 2046.46875 976.570312 2037.828125 985.199219 2027.179688 985.199219 C 2016.53125 985.199219 2007.898438 976.570312 2007.898438 965.921875 C 2007.898438 955.269531 2016.53125 946.628906 2027.179688 946.628906 "/>
<path fill-rule="evenodd" fill="rgb(54.492188%, 27.050781%, 12.939453%)" fill-opacity="1" d="M 2133.25 894.558594 C 2143.898438 894.558594 2152.539062 903.199219 2152.539062 913.851562 C 2152.539062 924.5 2143.898438 933.128906 2133.25 933.128906 C 2122.601562 933.128906 2113.96875 924.5 2113.96875 913.851562 C 2113.96875 903.199219 2122.601562 894.558594 2133.25 894.558594 "/>
<path fill-rule="evenodd" fill="rgb(54.492188%, 27.050781%, 12.939453%)" fill-opacity="1" d="M 2023.328125 878.171875 C 2031.320312 878.171875 2037.789062 884.648438 2037.789062 892.628906 C 2037.789062 900.621094 2031.320312 907.101562 2023.328125 907.101562 C 2015.339844 907.101562 2008.859375 900.621094 2008.859375 892.628906 C 2008.859375 884.648438 2015.339844 878.171875 2023.328125 878.171875 "/>
<path fill-rule="evenodd" fill="rgb(54.492188%, 27.050781%, 12.939453%)" fill-opacity="1" d="M 2318.011719 2054.710938 C 2344.628906 2054.710938 2366.21875 2076.289062 2366.21875 2102.921875 C 2366.21875 2129.550781 2344.628906 2151.140625 2318.011719 2151.140625 C 2291.378906 2151.140625 2269.789062 2129.550781 2269.789062 2102.921875 C 2269.789062 2076.289062 2291.378906 2054.710938 2318.011719 2054.710938 "/>
<path fill-rule="evenodd" fill="rgb(54.492188%, 27.050781%, 12.939453%)" fill-opacity="1" d="M 2285.320312 2380.371094 C 2311.949219 2380.371094 2333.539062 2401.960938 2333.539062 2428.578125 C 2333.539062 2455.210938 2311.949219 2476.800781 2285.320312 2476.800781 C 2258.699219 2476.800781 2237.109375 2455.210938 2237.109375 2428.578125 C 2237.109375 2401.960938 2258.699219 2380.371094 2285.320312 2380.371094 "/>
<path fill-rule="evenodd" fill="rgb(54.492188%, 27.050781%, 12.939453%)" fill-opacity="1" d="M 2568.371094 2102.921875 C 2595 2102.921875 2616.578125 2124.511719 2616.578125 2151.140625 C 2616.578125 2177.761719 2595 2199.351562 2568.371094 2199.351562 C 2541.738281 2199.351562 2520.160156 2177.761719 2520.160156 2151.140625 C 2520.160156 2124.511719 2541.738281 2102.921875 2568.371094 2102.921875 "/>
<path fill-rule="evenodd" fill="rgb(54.492188%, 27.050781%, 12.939453%)" fill-opacity="1" d="M 2474.808594 2214.78125 C 2490.78125 2214.78125 2503.730469 2227.730469 2503.730469 2243.710938 C 2503.730469 2259.679688 2490.78125 2272.640625 2474.808594 2272.640625 C 2458.828125 2272.640625 2445.878906 2259.679688 2445.878906 2243.710938 C 2445.878906 2227.730469 2458.828125 2214.78125 2474.808594 2214.78125 "/>
<path fill-rule="evenodd" fill="rgb(54.492188%, 27.050781%, 12.939453%)" fill-opacity="1" d="M 2236.480469 2214.78125 C 2252.449219 2214.78125 2265.398438 2227.730469 2265.398438 2243.710938 C 2265.398438 2259.679688 2252.449219 2272.640625 2236.480469 2272.640625 C 2220.5 2272.640625 2207.550781 2259.679688 2207.550781 2243.710938 C 2207.550781 2227.730469 2220.5 2214.78125 2236.480469 2214.78125 "/>
<path fill-rule="evenodd" fill="rgb(54.492188%, 27.050781%, 12.939453%)" fill-opacity="1" d="M 2456.609375 2056.808594 C 2472.589844 2056.808594 2485.539062 2069.761719 2485.539062 2085.738281 C 2485.539062 2101.71875 2472.589844 2114.671875 2456.609375 2114.671875 C 2440.640625 2114.671875 2427.679688 2101.71875 2427.679688 2085.738281 C 2427.679688 2069.761719 2440.640625 2056.808594 2456.609375 2056.808594 "/>
<path fill-rule="evenodd" fill="rgb(54.492188%, 27.050781%, 12.939453%)" fill-opacity="1" d="M 2178.898438 2343.730469 C 2194.878906 2343.730469 2207.828125 2356.679688 2207.828125 2372.660156 C 2207.828125 2388.628906 2194.878906 2401.578125 2178.898438 2401.578125 C 2162.929688 2401.578125 2149.96875 2388.628906 2149.96875 2372.660156 C 2149.96875 2356.679688 2162.929688 2343.730469 2178.898438 2343.730469 "/>
<path fill-rule="evenodd" fill="rgb(54.492188%, 27.050781%, 12.939453%)" fill-opacity="1" d="M 2127.570312 2535.769531 C 2131.910156 2526.039062 2143.308594 2521.671875 2153.039062 2526.011719 C 2162.761719 2530.351562 2167.128906 2541.75 2162.800781 2551.480469 C 2158.460938 2561.210938 2147.058594 2565.578125 2137.328125 2561.238281 C 2127.601562 2556.898438 2123.230469 2545.5 2127.570312 2535.769531 "/>
<path fill-rule="evenodd" fill="rgb(54.492188%, 27.050781%, 12.939453%)" fill-opacity="1" d="M 2123.191406 2446.621094 C 2127.53125 2436.890625 2138.929688 2432.519531 2148.660156 2436.859375 C 2158.390625 2441.191406 2162.761719 2452.601562 2158.421875 2462.320312 C 2154.089844 2472.050781 2142.691406 2476.421875 2132.960938 2472.089844 C 2123.230469 2467.75 2118.859375 2456.351562 2123.191406 2446.621094 "/>
<path fill-rule="evenodd" fill="rgb(54.492188%, 27.050781%, 12.939453%)" fill-opacity="1" d="M 2063.46875 2511.421875 C 2066.71875 2504.128906 2075.269531 2500.851562 2082.570312 2504.101562 C 2089.859375 2507.351562 2093.140625 2515.898438 2089.890625 2523.199219 C 2086.640625 2530.5 2078.078125 2533.769531 2070.789062 2530.519531 C 2063.488281 2527.269531 2060.210938 2518.71875 2063.46875 2511.421875 "/>
<path fill-rule="evenodd" fill="rgb(54.492188%, 27.050781%, 12.939453%)" fill-opacity="1" d="M 2429.261719 2326.230469 C 2433.589844 2316.5 2444.988281 2312.128906 2454.71875 2316.460938 C 2464.449219 2320.800781 2468.820312 2332.199219 2464.488281 2341.929688 C 2460.148438 2351.660156 2448.75 2356.03125 2439.019531 2351.691406 C 2429.289062 2347.359375 2424.921875 2335.949219 2429.261719 2326.230469 "/>
<path fill-rule="evenodd" fill="rgb(54.492188%, 27.050781%, 12.939453%)" fill-opacity="1" d="M 2325.871094 2316.46875 C 2330.210938 2306.738281 2341.609375 2302.371094 2351.339844 2306.699219 C 2361.070312 2311.039062 2365.441406 2322.441406 2361.101562 2332.171875 C 2356.769531 2341.898438 2345.359375 2346.269531 2335.640625 2341.929688 C 2325.910156 2337.601562 2321.539062 2326.191406 2325.871094 2316.46875 "/>
<path fill-rule="evenodd" fill="rgb(54.492188%, 27.050781%, 12.939453%)" fill-opacity="1" d="M 2376.441406 2198.699219 C 2387.089844 2198.699219 2395.71875 2207.328125 2395.71875 2217.980469 C 2395.71875 2228.640625 2387.089844 2237.269531 2376.441406 2237.269531 C 2365.78125 2237.269531 2357.148438 2228.640625 2357.148438 2217.980469 C 2357.148438 2207.328125 2365.78125 2198.699219 2376.441406 2198.699219 "/>
<path fill-rule="evenodd" fill="rgb(54.492188%, 27.050781%, 12.939453%)" fill-opacity="1" d="M 2653.230469 1518.371094 C 2663.878906 1518.371094 2672.511719 1527 2672.511719 1537.648438 C 2672.511719 1548.300781 2663.878906 1556.941406 2653.230469 1556.941406 C 2642.570312 1556.941406 2633.941406 1548.300781 2633.941406 1537.648438 C 2633.941406 1527 2642.570312 1518.371094 2653.230469 1518.371094 "/>
<path fill-rule="evenodd" fill="rgb(100%, 100%, 100%)" fill-opacity="1" d="M 823.582031 1720.539062 C 823.582031 1152.019531 1276.75 689.339844 1841.570312 674.019531 C 1831.960938 673.761719 1822.320312 673.628906 1812.640625 673.628906 C 1234.441406 673.628906 765.722656 1142.351562 765.722656 1720.539062 C 765.722656 2298.738281 1234.441406 2767.460938 1812.640625 2767.460938 C 1822.320312 2767.460938 1831.960938 2767.328125 1841.570312 2767.070312 C 1276.75 2751.75 823.582031 2289.070312 823.582031 1720.539062 "/>
<path fill-rule="evenodd" fill="rgb(95.3125%, 64.646912%, 45.872498%)" fill-opacity="1" d="M 1466.289062 2524.441406 C 939.59375 2344.199219 916.46875 1727.128906 920.25 1725.160156 C 922 1901.570312 966.972656 2081.019531 1060.730469 2231.328125 C 1140.78125 2359.660156 1258.800781 2468.398438 1406.429688 2511.148438 C 1426.128906 2516.859375 1446.109375 2521.300781 1466.289062 2524.441406 "/>
<path fill-rule="evenodd" fill="rgb(95.3125%, 64.646912%, 45.872498%)" fill-opacity="1" d="M 1747.148438 943.308594 C 2025.628906 1041.851562 2224.820312 1350.089844 2260.28125 1604.671875 C 2243.171875 1472.128906 2200.550781 1342.238281 2129.980469 1229.101562 C 2051.25 1102.890625 1935.191406 995.628906 1789.960938 953.570312 C 1775.828125 949.480469 1761.550781 946.058594 1747.148438 943.308594 "/>
<path fill-rule="evenodd" fill="rgb(54.492188%, 27.050781%, 12.939453%)" fill-opacity="1" d="M 3251.828125 1511.878906 C 3507.03125 1532.871094 3207.371094 1152.820312 3002.03125 1549.460938 C 3110.910156 1502.699219 3126.101562 1501.539062 3251.828125 1511.878906 "/>
<path fill-rule="evenodd" fill="rgb(54.492188%, 27.050781%, 12.939453%)" fill-opacity="1" d="M 3105.980469 1361.871094 C 3207.121094 1337.808594 3337.980469 1263.230469 3264.398438 1202.398438 C 3190.808594 1141.570312 3105.980469 1361.871094 3105.980469 1361.871094 "/>
<path fill-rule="evenodd" fill="rgb(54.492188%, 27.050781%, 12.939453%)" fill-opacity="1" d="M 3019.539062 1454.320312 C 3019.539062 1454.320312 3136.898438 1275.621094 3055.289062 1251.320312 C 2973.679688 1227.011719 2970.820312 1404.929688 3019.539062 1454.320312 "/>
<path fill-rule="evenodd" fill="rgb(54.492188%, 27.050781%, 12.939453%)" fill-opacity="1" d="M 746.402344 819.410156 C 490.617188 831.308594 803.613281 462.160156 994.703125 865.851562 C 887.554688 815.25 872.417969 813.550781 746.402344 819.410156 "/>
<path fill-rule="evenodd" fill="rgb(54.492188%, 27.050781%, 12.939453%)" fill-opacity="1" d="M 897.492188 674.679688 C 797.277344 647.039062 669.148438 567.851562 744.851562 509.671875 C 820.554688 451.5 897.492188 674.679688 897.492188 674.679688 "/>
<path fill-rule="evenodd" fill="rgb(54.492188%, 27.050781%, 12.939453%)" fill-opacity="1" d="M 980.59375 770.140625 C 980.59375 770.140625 869.667969 587.390625 952.089844 566 C 1034.511719 544.609375 1031.039062 722.53125 980.59375 770.140625 "/>
<!--<path fill-rule="evenodd" fill="rgb(54.492188%, 27.050781%, 12.939453%)" fill-opacity="1" d="M 889.144531 3207.933594 C 897.382812 3209.714844 901.5 3213.835938 901.5 3220.289062 C 893.039062 3235.65625 882.6875 3248.125 870.4375 3257.699219 C 858.191406 3267.273438 846.613281 3273.621094 835.703125 3276.738281 C 824.792969 3279.855469 813.546875 3281.414062 801.96875 3281.414062 C 775.695312 3281.414062 753.648438 3271.394531 735.835938 3251.351562 C 718.023438 3231.3125 709.117188 3202.144531 709.117188 3163.84375 C 709.117188 3121.09375 720.140625 3084.6875 742.183594 3054.628906 C 753.09375 3040.152344 767.066406 3028.628906 784.101562 3020.058594 C 801.132812 3011.484375 820.839844 3007.199219 843.21875 3007.199219 C 865.597656 3007.199219 882.628906 3013.15625 894.320312 3025.066406 C 906.011719 3036.980469 911.855469 3051.007812 911.855469 3067.152344 C 911.855469 3083.296875 907.402344 3096.433594 898.496094 3106.5625 C 889.589844 3116.695312 878.007812 3121.761719 863.757812 3121.761719 C 858.859375 3121.761719 853.183594 3120.871094 846.726562 3119.089844 C 851.402344 3113.300781 855.519531 3105.0625 859.082031 3094.371094 C 862.644531 3083.683594 864.425781 3073.554688 864.425781 3063.980469 C 864.425781 3054.402344 862.199219 3046.609375 857.746094 3040.597656 C 853.292969 3034.585938 846.28125 3031.582031 836.703125 3031.582031 C 822.007812 3031.582031 808.761719 3038.371094 796.960938 3051.953125 C 785.15625 3065.535156 776.363281 3082.238281 770.574219 3102.054688 C 764.785156 3121.871094 761.890625 3142.355469 761.890625 3163.511719 C 761.890625 3192.011719 767.453125 3213.609375 778.589844 3228.308594 C 789.722656 3243.003906 803.972656 3250.351562 821.339844 3250.351562 C 832.253906 3250.351562 843.605469 3246.675781 855.410156 3239.328125 C 867.210938 3231.980469 878.453125 3221.515625 889.144531 3207.933594 Z M 1124.28125 3126.101562 C 1124.28125 3094.929688 1119.988281 3072.328125 1111.421875 3058.300781 C 1102.851562 3044.273438 1091.160156 3037.257812 1076.351562 3037.257812 C 1061.539062 3037.257812 1047.511719 3043.769531 1034.269531 3056.796875 C 1021.019531 3069.824219 1010.660156 3086.246094 1003.199219 3106.0625 C 995.746094 3125.878906 992.015625 3145.921875 992.015625 3166.183594 C 992.015625 3194.015625 996.636719 3216.839844 1005.878906 3234.652344 C 1015.121094 3252.464844 1029.089844 3261.371094 1047.789062 3261.371094 C 1063.378906 3261.371094 1077.128906 3254.527344 1089.039062 3240.832031 C 1100.960938 3227.136719 1109.808594 3210.160156 1115.601562 3189.898438 C 1121.378906 3169.632812 1124.28125 3148.371094 1124.28125 3126.101562 Z M 1130.289062 3248.179688 C 1120.269531 3259.203125 1107.75 3268.054688 1092.71875 3274.734375 C 1077.691406 3281.414062 1061.261719 3284.753906 1043.449219 3284.753906 C 1025.640625 3284.753906 1010 3280.746094 996.523438 3272.730469 C 983.054688 3264.714844 972.308594 3254.023438 964.292969 3240.664062 C 948.261719 3213.945312 940.246094 3182.769531 940.246094 3147.144531 C 940.246094 3111.519531 949.097656 3079.789062 966.796875 3051.953125 C 984.5 3024.121094 1008.160156 3006.53125 1037.769531 2999.179688 C 1039.550781 2999.628906 1041.28125 3000.519531 1042.949219 3001.855469 C 1044.621094 3003.191406 1045.570312 3004.636719 1045.789062 3006.195312 C 1017.058594 3027.128906 999.695312 3055.628906 993.683594 3091.699219 C 1003.039062 3065.425781 1017.121094 3044.886719 1035.941406 3030.078125 C 1054.75 3015.269531 1074.960938 3007.867188 1096.558594 3007.867188 C 1118.160156 3007.867188 1136.578125 3017.164062 1151.828125 3035.753906 C 1167.089844 3054.347656 1174.710938 3081.234375 1174.710938 3116.414062 C 1174.710938 3150.929688 1168.261719 3181.992188 1155.339844 3209.601562 C 1148.660156 3224.300781 1140.308594 3237.15625 1130.289062 3248.179688 Z M 1328.019531 3164.847656 L 1295.960938 3164.511719 C 1286.828125 3164.511719 1279.808594 3164.625 1274.910156 3164.847656 C 1271.351562 3196.019531 1269.570312 3221.292969 1269.570312 3240.664062 C 1269.570312 3260.035156 1270.238281 3273.621094 1271.570312 3281.414062 C 1264.449219 3281.859375 1259.769531 3282.082031 1257.550781 3282.082031 C 1244.851562 3282.082031 1235.71875 3279.855469 1230.160156 3275.402344 C 1224.589844 3270.949219 1221.808594 3263.097656 1221.808594 3251.855469 C 1221.808594 3240.609375 1224.921875 3213.609375 1231.160156 3170.859375 C 1224.03125 3173.085938 1218.800781 3174.976562 1215.460938 3176.535156 C 1215.019531 3171.636719 1214.789062 3167.964844 1214.789062 3165.515625 C 1214.789062 3150.152344 1221.808594 3140.574219 1235.839844 3136.789062 C 1240.070312 3106.285156 1242.628906 3079.898438 1243.519531 3057.632812 C 1232.160156 3057.632812 1224.980469 3056.074219 1221.96875 3052.957031 C 1218.96875 3049.839844 1217.46875 3042.9375 1217.46875 3032.246094 C 1218.359375 3022.230469 1219.25 3015.660156 1220.140625 3012.542969 C 1245.300781 3015.882812 1272.910156 3017.554688 1302.96875 3017.554688 C 1333.03125 3017.554688 1362.089844 3014.878906 1390.140625 3009.535156 C 1387.03125 3032.917969 1372.78125 3046.945312 1347.390625 3051.621094 C 1333.589844 3054.292969 1313.878906 3056.074219 1288.269531 3056.964844 C 1288.050781 3059.859375 1284.820312 3085.800781 1278.589844 3134.785156 C 1291.5 3135.230469 1300.300781 3135.453125 1304.96875 3135.453125 C 1326.128906 3135.453125 1341.160156 3131.78125 1350.058594 3124.433594 C 1350.511719 3128.886719 1350.730469 3132.226562 1350.730469 3134.453125 C 1350.730469 3154.714844 1343.160156 3164.847656 1328.019531 3164.847656 Z M 1501.699219 3164.847656 L 1469.640625 3164.511719 C 1460.511719 3164.511719 1453.488281 3164.625 1448.589844 3164.847656 C 1445.03125 3196.019531 1443.25 3221.292969 1443.25 3240.664062 C 1443.25 3260.035156 1443.921875 3273.621094 1445.25 3281.414062 C 1438.128906 3281.859375 1433.449219 3282.082031 1431.230469 3282.082031 C 1418.53125 3282.082031 1409.398438 3279.855469 1403.839844 3275.402344 C 1398.269531 3270.949219 1395.488281 3263.097656 1395.488281 3251.855469 C 1395.488281 3240.609375 1398.609375 3213.609375 1404.839844 3170.859375 C 1397.710938 3173.085938 1392.480469 3174.976562 1389.140625 3176.535156 C 1388.699219 3171.636719 1388.46875 3167.964844 1388.46875 3165.515625 C 1388.46875 3150.152344 1395.488281 3140.574219 1409.519531 3136.789062 C 1413.75 3106.285156 1416.308594 3079.898438 1417.199219 3057.632812 C 1405.839844 3057.632812 1398.660156 3056.074219 1395.648438 3052.957031 C 1392.648438 3049.839844 1391.148438 3042.9375 1391.148438 3032.246094 C 1392.039062 3022.230469 1392.929688 3015.660156 1393.820312 3012.542969 C 1418.980469 3015.882812 1446.589844 3017.554688 1476.648438 3017.554688 C 1506.710938 3017.554688 1535.769531 3014.878906 1563.820312 3009.535156 C 1560.710938 3032.917969 1546.460938 3046.945312 1521.070312 3051.621094 C 1507.269531 3054.292969 1487.558594 3056.074219 1461.949219 3056.964844 C 1461.730469 3059.859375 1458.5 3085.800781 1452.269531 3134.785156 C 1465.179688 3135.230469 1473.980469 3135.453125 1478.648438 3135.453125 C 1499.808594 3135.453125 1514.839844 3131.78125 1523.738281 3124.433594 C 1524.191406 3128.886719 1524.410156 3132.226562 1524.410156 3134.453125 C 1524.410156 3154.714844 1516.839844 3164.847656 1501.699219 3164.847656 Z M 1676.378906 3164.847656 L 1644.320312 3164.511719 C 1634.519531 3164.511719 1627.058594 3164.625 1621.941406 3164.847656 C 1618.601562 3194.460938 1616.820312 3219.84375 1616.601562 3241 C 1668.921875 3241 1707.78125 3236.769531 1733.160156 3228.308594 C 1731.160156 3244.785156 1726.148438 3257.585938 1718.128906 3266.71875 C 1710.121094 3275.847656 1700.101562 3280.410156 1688.070312 3280.410156 C 1684.511719 3280.410156 1674.550781 3279.464844 1658.179688 3277.570312 C 1641.808594 3275.679688 1624.5 3274.734375 1606.238281 3274.734375 C 1587.980469 3274.734375 1570.171875 3276.625 1552.800781 3280.410156 C 1555.25 3269.945312 1560.601562 3261.371094 1568.828125 3254.691406 L 1568.828125 3253.355469 C 1568.828125 3241.332031 1571.949219 3213.945312 1578.191406 3171.191406 C 1572.621094 3173.195312 1567.828125 3174.976562 1563.820312 3176.535156 C 1563.378906 3171.636719 1563.160156 3167.964844 1563.160156 3165.515625 C 1563.160156 3150.597656 1569.71875 3141.132812 1582.859375 3137.125 C 1586.871094 3107.730469 1589.539062 3081.234375 1590.878906 3057.632812 C 1582.640625 3057.1875 1577.410156 3055.296875 1575.179688 3051.953125 C 1572.949219 3048.613281 1571.839844 3042.046875 1571.839844 3032.246094 C 1572.511719 3022.230469 1573.398438 3015.660156 1574.511719 3012.542969 C 1599.449219 3015.882812 1627.011719 3017.554688 1657.179688 3017.554688 C 1687.351562 3017.554688 1716.460938 3014.878906 1744.519531 3009.535156 C 1741.398438 3032.917969 1727.148438 3046.945312 1701.769531 3051.621094 C 1686.851562 3054.515625 1664.691406 3056.40625 1635.300781 3057.296875 C 1635.078125 3059.746094 1631.851562 3085.578125 1625.609375 3134.785156 C 1638.96875 3135.230469 1648.210938 3135.453125 1653.339844 3135.453125 C 1674.488281 3135.453125 1689.519531 3131.78125 1698.429688 3124.433594 C 1698.871094 3128.886719 1699.089844 3132.226562 1699.089844 3134.453125 C 1699.089844 3154.714844 1691.519531 3164.847656 1676.378906 3164.847656 Z M 1887.140625 3164.847656 L 1855.070312 3164.511719 C 1845.28125 3164.511719 1837.820312 3164.625 1832.691406 3164.847656 C 1829.351562 3194.460938 1827.570312 3219.84375 1827.351562 3241 C 1879.679688 3241 1918.53125 3236.769531 1943.921875 3228.308594 C 1941.910156 3244.785156 1936.898438 3257.585938 1928.890625 3266.71875 C 1920.871094 3275.847656 1910.851562 3280.410156 1898.828125 3280.410156 C 1895.261719 3280.410156 1885.300781 3279.464844 1868.929688 3277.570312 C 1852.570312 3275.679688 1835.261719 3274.734375 1817 3274.734375 C 1798.738281 3274.734375 1780.921875 3276.625 1763.558594 3280.410156 C 1766.011719 3269.945312 1771.351562 3261.371094 1779.589844 3254.691406 L 1779.589844 3253.355469 C 1779.589844 3241.332031 1782.710938 3213.945312 1788.941406 3171.191406 C 1783.371094 3173.195312 1778.589844 3174.976562 1774.578125 3176.535156 C 1774.128906 3171.636719 1773.910156 3167.964844 1773.910156 3165.515625 C 1773.910156 3150.597656 1780.480469 3141.132812 1793.621094 3137.125 C 1797.621094 3107.730469 1800.300781 3081.234375 1801.628906 3057.632812 C 1793.390625 3057.1875 1788.160156 3055.296875 1785.929688 3051.953125 C 1783.710938 3048.613281 1782.589844 3042.046875 1782.589844 3032.246094 C 1783.261719 3022.230469 1784.148438 3015.660156 1785.269531 3012.542969 C 1810.210938 3015.882812 1837.761719 3017.554688 1867.929688 3017.554688 C 1898.101562 3017.554688 1927.21875 3014.878906 1955.269531 3009.535156 C 1952.160156 3032.917969 1937.898438 3046.945312 1912.519531 3051.621094 C 1897.601562 3054.515625 1875.449219 3056.40625 1846.058594 3057.296875 C 1845.828125 3059.746094 1842.601562 3085.578125 1836.371094 3134.785156 C 1849.730469 3135.230469 1858.96875 3135.453125 1864.089844 3135.453125 C 1885.238281 3135.453125 1900.269531 3131.78125 1909.179688 3124.433594 C 1909.628906 3128.886719 1909.851562 3132.226562 1909.851562 3134.453125 C 1909.851562 3154.714844 1902.28125 3164.847656 1887.140625 3164.847656 Z M 2077.179688 3035.589844 C 2077.628906 3026.902344 2078.519531 3020.226562 2079.859375 3015.546875 C 2103.898438 3019.558594 2132.738281 3021.5625 2166.359375 3021.5625 C 2199.980469 3021.5625 2235.171875 3017.554688 2271.910156 3009.535156 C 2268.121094 3037.816406 2253.761719 3053.289062 2228.820312 3055.960938 C 2221.03125 3057.074219 2209 3058.1875 2192.75 3059.304688 C 2192.300781 3065.761719 2188.628906 3093.984375 2181.730469 3143.972656 C 2174.820312 3193.960938 2171.371094 3228.417969 2171.371094 3247.34375 C 2171.371094 3266.269531 2172.929688 3279.410156 2176.050781 3286.757812 C 2157.121094 3281.859375 2144.210938 3275.34375 2137.300781 3267.21875 C 2130.398438 3259.089844 2126.949219 3249.015625 2126.949219 3236.992188 C 2126.949219 3224.96875 2129.789062 3198.859375 2135.46875 3158.667969 C 2141.140625 3118.476562 2144.539062 3086.132812 2145.648438 3061.640625 C 2127.621094 3062.53125 2109.921875 3062.976562 2092.550781 3062.976562 C 2082.300781 3062.976562 2077.179688 3053.847656 2077.179688 3035.589844 Z M 2432.558594 3281.746094 C 2424.539062 3281.746094 2418.640625 3279.6875 2414.859375 3275.566406 C 2411.070312 3271.449219 2407.839844 3265.214844 2405.171875 3256.863281 C 2402.5 3248.515625 2397.269531 3226.078125 2389.46875 3189.5625 C 2384.351562 3194.015625 2376 3196.464844 2364.421875 3196.910156 L 2307.308594 3198.914062 C 2293.730469 3232.09375 2283.710938 3261.59375 2277.25 3287.425781 C 2255.871094 3279.855469 2245.191406 3271.28125 2245.191406 3261.707031 C 2245.191406 3257.476562 2251.640625 3241.667969 2264.558594 3214.277344 C 2277.46875 3186.890625 2292.109375 3155.773438 2308.480469 3120.925781 C 2324.839844 3086.078125 2335.921875 3060.75 2341.710938 3044.941406 L 2347.71875 3028.574219 C 2345.941406 3025.457031 2341.601562 3019.777344 2334.699219 3011.539062 C 2342.710938 3008.867188 2349.671875 3007.53125 2355.570312 3007.53125 C 2361.46875 3007.53125 2366.371094 3007.976562 2370.269531 3008.867188 C 2374.171875 3009.757812 2377.621094 3011.261719 2380.621094 3013.378906 C 2383.628906 3015.492188 2386.300781 3017.664062 2388.640625 3019.890625 C 2390.980469 3022.117188 2393.148438 3025.402344 2395.148438 3029.742188 C 2397.160156 3034.085938 2398.828125 3037.980469 2400.160156 3041.433594 C 2401.5 3044.886719 2403 3049.726562 2404.671875 3055.960938 C 2406.339844 3062.195312 2407.679688 3067.597656 2408.679688 3072.160156 C 2409.679688 3076.726562 2411.019531 3083.070312 2412.691406 3091.199219 C 2414.359375 3099.328125 2416.078125 3107.175781 2417.859375 3114.746094 C 2419.640625 3122.316406 2422.761719 3136.734375 2427.21875 3158 C 2431.671875 3179.265625 2435.179688 3195.183594 2437.738281 3205.761719 C 2440.300781 3216.339844 2443.96875 3228.195312 2448.761719 3241.332031 C 2453.550781 3254.46875 2458.609375 3264.824219 2463.960938 3272.394531 C 2451.039062 3278.628906 2440.578125 3281.746094 2432.558594 3281.746094 Z M 2363.089844 3072.996094 C 2359.96875 3080.121094 2353.121094 3095.320312 2342.550781 3118.589844 C 2331.96875 3141.855469 2323.789062 3160.394531 2318 3174.199219 L 2386.46875 3174.199219 C 2376 3126.101562 2368.210938 3092.367188 2363.089844 3072.996094 Z M 2476.648438 3280.410156 C 2479.988281 3267.496094 2486.78125 3257.699219 2497.019531 3251.019531 C 2495.910156 3246.566406 2495.351562 3240.386719 2495.351562 3232.480469 C 2495.351562 3224.578125 2497.691406 3203.367188 2502.371094 3168.855469 C 2510.601562 3111.628906 2514.71875 3067.316406 2514.71875 3035.921875 C 2514.71875 3029.242188 2514.28125 3020.113281 2513.390625 3008.535156 C 2530.308594 3009.425781 2542.671875 3012.097656 2550.460938 3016.550781 C 2553.800781 3018.332031 2556.359375 3021.058594 2558.140625 3024.734375 C 2559.929688 3028.40625 2560.980469 3031.804688 2561.320312 3034.921875 C 2561.648438 3038.039062 2561.820312 3043.714844 2561.820312 3051.953125 C 2561.820312 3060.191406 2558.421875 3087.191406 2551.628906 3132.949219 C 2544.839844 3178.707031 2540.890625 3214.722656 2539.769531 3241 C 2592.550781 3241 2631.621094 3236.769531 2657.011719 3228.308594 C 2655 3244.785156 2649.988281 3257.585938 2641.980469 3266.71875 C 2633.960938 3275.847656 2623.941406 3280.410156 2611.921875 3280.410156 C 2608.359375 3280.410156 2598.390625 3279.464844 2582.019531 3277.570312 C 2565.660156 3275.679688 2548.351562 3274.734375 2530.089844 3274.734375 C 2511.828125 3274.734375 2494.019531 3276.625 2476.648438 3280.410156 Z M 2737.839844 3024.734375 C 2739.621094 3028.40625 2740.679688 3031.804688 2741.011719 3034.921875 C 2741.339844 3038.039062 2741.511719 3043.714844 2741.511719 3051.953125 C 2741.511719 3060.191406 2738.730469 3083.351562 2733.160156 3121.425781 L 2730.148438 3140.800781 C 2760.210938 3116.082031 2785.601562 3092.089844 2806.308594 3068.820312 C 2827.011719 3045.554688 2841.601562 3025.789062 2850.058594 3009.535156 C 2857.410156 3022.453125 2861.078125 3035.085938 2861.078125 3047.445312 C 2861.078125 3059.804688 2854.789062 3072.441406 2842.210938 3085.355469 C 2829.628906 3098.269531 2810.648438 3114.078125 2785.261719 3132.78125 C 2800.851562 3181.992188 2818.328125 3220.066406 2837.699219 3247.011719 C 2845.941406 3258.367188 2856.410156 3270.726562 2869.101562 3284.085938 C 2860.859375 3286.3125 2852.621094 3287.425781 2844.378906 3287.425781 C 2836.140625 3287.425781 2827.679688 3284.863281 2819 3279.742188 C 2810.308594 3274.621094 2802.800781 3268.386719 2796.449219 3261.039062 C 2790.109375 3253.691406 2783.589844 3243.894531 2776.910156 3231.644531 C 2767.339844 3213.609375 2756.988281 3189.898438 2745.851562 3160.503906 C 2739.621094 3165.179688 2732.828125 3169.96875 2725.480469 3174.867188 C 2721.46875 3208.042969 2719.46875 3233.148438 2719.46875 3250.183594 C 2719.46875 3267.21875 2721.019531 3279.410156 2724.140625 3286.757812 C 2705.21875 3281.859375 2692.300781 3275.34375 2685.398438 3267.21875 C 2678.5 3259.089844 2675.039062 3247.789062 2675.039062 3233.316406 C 2675.039062 3224.855469 2677.378906 3203.367188 2682.058594 3168.855469 C 2690.300781 3111.628906 2694.421875 3067.316406 2694.421875 3035.921875 C 2694.421875 3029.242188 2693.96875 3020.113281 2693.078125 3008.535156 C 2710 3009.425781 2722.359375 3012.097656 2730.148438 3016.550781 C 2733.488281 3018.332031 2736.050781 3021.058594 2737.839844 3024.734375 "/>-->
<!--<path fill-rule="evenodd" fill="rgb(54.492188%, 27.050781%, 12.939453%)" fill-opacity="1" d="M 1181.929688 3444.039062 C 1190.230469 3439.96875 1196.109375 3431.972656 1196.109375 3420.507812 C 1196.109375 3403.464844 1182.53125 3393.207031 1158.25 3393.207031 L 1110.890625 3393.207031 L 1110.890625 3498.792969 L 1161.269531 3498.792969 C 1187.960938 3498.792969 1201.691406 3488.386719 1201.691406 3470.285156 C 1201.691406 3456.257812 1193.851562 3447.359375 1181.929688 3444.039062 Z M 1156.890625 3405.425781 C 1172.28125 3405.425781 1181.03125 3411.15625 1181.03125 3422.320312 C 1181.03125 3433.480469 1172.28125 3439.210938 1156.890625 3439.210938 L 1125.96875 3439.210938 L 1125.96875 3405.425781 Z M 1160.660156 3486.574219 L 1125.96875 3486.574219 L 1125.96875 3451.429688 L 1160.660156 3451.429688 C 1177.410156 3451.429688 1186.460938 3456.859375 1186.460938 3469.078125 C 1186.460938 3481.296875 1177.410156 3486.574219 1160.660156 3486.574219 Z M 1349.621094 3498.792969 L 1324.578125 3463.347656 C 1339.359375 3458.066406 1347.808594 3446.300781 1347.808594 3430.011719 C 1347.808594 3407.085938 1331.21875 3393.207031 1303.761719 3393.207031 L 1262.589844 3393.207031 L 1262.589844 3498.792969 L 1277.671875 3498.792969 L 1277.671875 3466.664062 L 1303.761719 3466.664062 C 1306.03125 3466.664062 1308.289062 3466.515625 1310.398438 3466.363281 L 1333.179688 3498.792969 Z M 1303.308594 3453.84375 L 1277.671875 3453.84375 L 1277.671875 3406.328125 L 1303.308594 3406.328125 C 1322.621094 3406.328125 1332.730469 3414.929688 1332.730469 3430.011719 C 1332.730469 3445.09375 1322.621094 3453.84375 1303.308594 3453.84375 Z M 1488.648438 3498.792969 L 1504.488281 3498.792969 L 1456.519531 3393.207031 L 1441.589844 3393.207031 L 1393.769531 3498.792969 L 1409.308594 3498.792969 L 1420.921875 3472.398438 L 1477.03125 3472.398438 Z M 1426.199219 3460.328125 L 1448.980469 3408.59375 L 1471.761719 3460.328125 Z M 1633.410156 3393.207031 L 1633.410156 3471.945312 L 1570.058594 3393.207031 L 1557.691406 3393.207031 L 1557.691406 3498.792969 L 1572.769531 3498.792969 L 1572.769531 3420.054688 L 1636.128906 3498.792969 L 1648.488281 3498.792969 L 1648.488281 3393.207031 Z M 1717.691406 3498.792969 L 1762.179688 3498.792969 C 1796.121094 3498.792969 1819.199219 3477.375 1819.199219 3446 C 1819.199219 3414.628906 1796.121094 3393.207031 1762.179688 3393.207031 L 1717.691406 3393.207031 Z M 1732.769531 3485.671875 L 1732.769531 3406.328125 L 1761.28125 3406.328125 C 1787.371094 3406.328125 1804.121094 3422.320312 1804.121094 3446 C 1804.121094 3469.683594 1787.371094 3485.671875 1761.28125 3485.671875 Z M 1920.371094 3498.792969 L 1992.621094 3498.792969 L 1992.621094 3485.671875 L 1935.449219 3485.671875 L 1935.449219 3393.207031 L 1920.371094 3393.207031 Z M 2093.191406 3500 C 2125.308594 3500 2149.148438 3477.074219 2149.148438 3446 C 2149.148438 3414.929688 2125.308594 3392 2093.191406 3392 C 2060.761719 3392 2036.921875 3415.078125 2036.921875 3446 C 2036.921875 3476.921875 2060.761719 3500 2093.191406 3500 Z M 2093.191406 3486.574219 C 2069.511719 3486.574219 2052.011719 3469.378906 2052.011719 3446 C 2052.011719 3422.621094 2069.511719 3405.425781 2093.191406 3405.425781 C 2116.570312 3405.425781 2134.058594 3422.621094 2134.058594 3446 C 2134.058594 3469.378906 2116.570312 3486.574219 2093.191406 3486.574219 Z M 2282.898438 3479.789062 C 2275.359375 3484.613281 2267.058594 3486.574219 2258.160156 3486.574219 C 2233.878906 3486.574219 2216.230469 3469.230469 2216.230469 3446 C 2216.230469 3422.46875 2233.878906 3405.425781 2258.308594 3405.425781 C 2270.230469 3405.425781 2280.179688 3409.195312 2288.929688 3417.644531 L 2298.28125 3408.289062 C 2288.628906 3397.582031 2274.449219 3392 2257.710938 3392 C 2224.980469 3392 2201.140625 3414.777344 2201.140625 3446 C 2201.140625 3477.222656 2224.980469 3500 2257.410156 3500 C 2272.191406 3500 2286.820312 3495.476562 2297.378906 3486.574219 L 2297.378906 3445.398438 L 2282.898438 3445.398438 Z M 2411.371094 3500 C 2443.5 3500 2467.328125 3477.074219 2467.328125 3446 C 2467.328125 3414.929688 2443.5 3392 2411.371094 3392 C 2378.941406 3392 2355.109375 3415.078125 2355.109375 3446 C 2355.109375 3476.921875 2378.941406 3500 2411.371094 3500 Z M 2411.371094 3486.574219 C 2387.691406 3486.574219 2370.191406 3469.378906 2370.191406 3446 C 2370.191406 3422.621094 2387.691406 3405.425781 2411.371094 3405.425781 C 2434.75 3405.425781 2452.25 3422.621094 2452.25 3446 C 2452.25 3469.378906 2434.75 3486.574219 2411.371094 3486.574219 "/>-->

</svg>
