<svg
		width="24"
		height="24"
		viewBox="0 0 24 24"
		fill="none"
		xmlns="http://www.w3.org/2000/svg"

		>
<rect fill="#6f4e37" width="24" height="24" rx="4" />
<rect fill="#EDEDED" width="16" height="16" x="4" y="4" />
<path
fill="#6f4e37"
d="M15.69 0H8.32C1.6 0 0 1.6 0 8.31v7.37C0 22.4 1.59 24 8.31 24h7.37C22.4 24 24 22.41 24 15.69V8.32C24 1.6 22.41 0 15.69 0Zm3.69 17.13h-1.75c-.67 0-.87-.54-2.05-1.73-1.04-1-1.48-1.13-1.74-1.13-.37 0-.46.1-.46.6v1.58c0 .43-.14.68-1.26.68a6.83 6.83 0 0 1-5.33-3.2 13.95 13.95 0 0 1-2.76-5.8c0-.27.1-.5.6-.5h1.75c.45 0 .6.2.78.66.85 2.5 2.3 4.67 2.89 4.67.22 0 .32-.1.32-.66V9.72c-.07-1.17-.7-1.27-.7-1.7a.43.43 0 0 1 .46-.4h2.74c.38 0 .5.2.5.64v3.48c0 .37.17.5.28.5.22 0 .4-.13.81-.54a14.4 14.4 0 0 0 2.15-3.58.75.75 0 0 1 .77-.5h1.75c.52 0 .63.27.52.64a21.85 21.85 0 0 1-2.35 4.04c-.19.29-.26.44 0 .77.18.27.79.78 1.2 1.27.6.6 1.1 1.29 1.48 2.05.14.48-.1.73-.6.73Z"
/>
		</svg>
